<svg width="70" height="70" viewBox="0 0 70 70" fill="none" xmlns="http://www.w3.org/2000/svg">
                    <path d="M18.8672 41.0156H46.7578V4.375H18.8672V41.0156ZM20.5078 6.01562H45.1172V39.375H20.5078V6.01562Z" fill="#1C2647"></path>
                    <path d="M52.5 46.4844V48.6719H48.9453V45.3906H51.1328V0H15.3125C12.4478 0 10.1172 2.33064 10.1172 5.19531V48.9453C10.1172 51.81 12.4478 54.1406 15.3125 54.1406H18.8672V58.5156H27.0703V54.1406H38.7618L34.6603 58.2422L38.2151 61.7969H26.25V70H42.7226L49.2851 63.4375H52.5V65.625H59.8828V46.4844H52.5ZM16.1328 1.64062H49.4922V43.75H16.1328V1.64062ZM11.7578 5.19531C11.7578 3.51764 12.9265 2.10861 14.4922 1.73729V43.8159C13.444 43.983 12.4988 44.4635 11.7578 45.1598V5.19531ZM25.4297 56.875H20.5078V49.7656H25.4297V56.875ZM27.0703 52.5V49.7656H41.5625V48.125H15.3125V49.7656H18.8672V52.5H15.3125C13.3524 52.5 11.7578 50.9054 11.7578 48.9453C11.7578 46.9852 13.3524 45.3906 15.3125 45.3906H47.3047V48.6719H44.2306L40.4024 52.5H27.0703ZM52.5 61.7969H48.6056L42.0431 68.3594H27.8906V63.4375H40.5351L46.244 57.7284L45.0841 56.5685L40.1953 61.4571L36.9804 58.2422L44.9101 50.3125H52.5V61.7969ZM58.2422 63.9844H54.1406V48.125H58.2422V63.9844Z" fill="#1C2647"></path>
                    <path d="M30.3516 26.7969H35.2734V19.1406H39.6484V14.2188H35.2734V9.84375H30.3516V14.2188H25.9766V19.1406H30.3516V26.7969ZM27.6172 17.5V15.8594H31.9922V11.4844H33.6328V15.8594H38.0078V17.5H33.6328V25.1562H31.9922V17.5H27.6172Z" fill="#1C2647"></path>
                    <path d="M24.0625 29.5312H41.5625V31.1719H24.0625V29.5312Z" fill="#1C2647"></path>
                    <path d="M26.25 32.8125H39.375V34.4531H26.25V32.8125Z" fill="#1C2647"></path>
                  </svg>