<svg width="90" height="90" viewBox="0 0 90 90" fill="none" xmlns="http://www.w3.org/2000/svg">
                    <g clip-path="url(#clip1)">
                      <path d="M39.0234 57.2194L34.8047 53.0007V42.5391H29.1797V35.5078H23.5547V32.6953H15.8203V36.9141H10.1953V53.0009L5.53973 57.6562L16.4382 68.5547H20.0391V72.0703H17.2266V90H41.8359V72.0703H39.0234V57.2194ZM29.1797 44.6484H32.6953V52.3828H29.1797V44.6484ZM23.5547 37.6172H27.0703V52.3828H23.5547V37.6172ZM17.9297 34.8047H21.4453V52.3828H17.9297V34.8047ZM17.3118 66.4453L8.52274 57.6562L11.25 54.929L16.1293 59.8082L17.6207 58.3168L12.3047 53.0007V39.0234H15.8203V54.4922H33.3132L36.9141 58.0931V72.0703H22.1484V68.5547H26.7187V66.4453H17.3118ZM39.7266 87.8906H19.3359V79.8047H39.7266V87.8906ZM39.7266 74.1797V77.6953H19.3359V74.1797H39.7266Z" fill="#000001"></path>
                      <path d="M73.5618 68.5547L84.4603 57.6562L79.8047 53.0009V36.9141H74.1797V32.6953H66.4453V35.5078H60.8203V42.5391H55.1953V53.0007L50.9766 57.2194V72.0703H48.1641V90H72.7734V72.0703H69.9609V68.5547H73.5618ZM68.5547 34.8047H72.0703V52.3828H68.5547V34.8047ZM62.9297 37.6172H66.4453V52.3828H62.9297V37.6172ZM57.3047 44.6484H60.8203V52.3828H57.3047V44.6484ZM70.6641 87.8906H50.2734V79.8047H70.6641V87.8906ZM70.6641 74.1797V77.6953H50.2734V74.1797H70.6641ZM67.8516 68.5547V72.0703H53.0859V58.0931L56.6868 54.4922H74.1797V39.0234H77.6953V53.0007L72.3793 58.3168L73.8707 59.8082L78.75 54.929L81.4772 57.6562L72.6882 66.4453H63.2812V68.5547H67.8516Z" fill="#000001"></path>
                      <mask id="path-3-inside-1" fill="white">
                        <ellipse cx="39.5949" cy="19.951" rx="9.38002" ry="9.38002" transform="rotate(55.3646 39.5949 19.951)"></ellipse>
                      </mask>
                      <path d="M35.264 13.6814C38.7266 11.2895 43.4726 12.1576 45.8645 15.6202L17.8898 34.9441C26.1702 46.9315 42.6006 49.9366 54.588 41.6561L35.264 13.6814ZM45.8645 15.6202C48.2563 19.0828 47.3883 23.8288 43.9257 26.2206L24.6017 -1.75411C12.6143 6.52637 9.60928 22.9567 17.8898 34.9441L45.8645 15.6202ZM43.9257 26.2206C40.4631 28.6125 35.7171 27.7444 33.3252 24.2818L61.2999 4.95786C53.0195 -7.02953 36.5891 -10.0346 24.6017 -1.75411L43.9257 26.2206ZM33.3252 24.2818C30.9334 20.8192 31.8014 16.0732 35.264 13.6814L54.588 41.6561C66.5754 33.3756 69.5804 16.9453 61.2999 4.95786L33.3252 24.2818Z" fill="#000001" mask="url(#path-3-inside-1)"></path>
                      <mask id="path-5-inside-2" fill="white">
                        <ellipse cx="51.2678" cy="19.5501" rx="9.38002" ry="9.38002" transform="rotate(55.3646 51.2678 19.5501)"></ellipse>
                      </mask>
                      <path d="M46.9369 13.2805C50.3996 10.8886 55.1455 11.7567 57.5374 15.2193L29.5627 34.5433C37.8431 46.5306 54.2735 49.5357 66.2609 41.2552L46.9369 13.2805ZM57.5374 15.2193C59.9292 18.6819 59.0612 23.4279 55.5986 25.8197L36.2746 -2.15499C24.2872 6.12549 21.2822 22.5559 29.5627 34.5433L57.5374 15.2193ZM55.5986 25.8197C52.136 28.2116 47.39 27.3436 44.9982 23.881L72.9729 4.55698C64.6924 -7.43041 48.262 -10.4355 36.2746 -2.15499L55.5986 25.8197ZM44.9982 23.881C42.6063 20.4183 43.4743 15.6724 46.9369 13.2805L66.2609 41.2552C78.2483 32.9747 81.2533 16.5444 72.9729 4.55698L44.9982 23.881Z" fill="#000001" mask="url(#path-5-inside-2)"></path>
                      <path d="M38.2202 4.43259L36.7547 4.63225C36.9933 6.38316 35.763 8.00156 34.0121 8.2401L34.2117 9.70561C35.9626 9.46707 37.581 10.6974 37.8196 12.4483L39.2851 12.2486C39.0465 10.4977 40.2768 8.87931 42.0278 8.64076L41.8281 7.17526C40.0772 7.4138 38.4588 6.1835 38.2202 4.43259ZM39.43 8.24833C38.9138 8.68809 38.4978 9.2355 38.212 9.85049C37.7723 9.33434 37.2249 8.91832 36.6099 8.63254C37.126 8.19277 37.542 7.64537 37.8278 7.03038C38.2676 7.54652 38.815 7.96267 39.43 8.24833Z" fill="#000001"></path>
                    </g>
                    <defs>
                      <clipPath id="clip1">
                        <rect width="90" height="90" fill="white"></rect>
                      </clipPath>
                    </defs>
                  </svg>