<svg width="90" height="90" viewBox="0 0 90 90" fill="none" xmlns="http://www.w3.org/2000/svg">
                    <g clip-path="url(#clip3)">
                      <path d="M68.5547 23.5547C68.5547 21.6629 67.189 20.0853 65.3922 19.7531C65.1966 18.6982 64.9188 17.6599 64.5622 16.6495C65.1535 16.146 65.5801 15.4781 65.7853 14.712C66.0528 13.7141 65.9153 12.6721 65.3991 11.7775C64.4527 10.1387 62.48 9.45721 60.7572 10.0693C60.0595 9.25488 59.3002 8.49533 58.4856 7.79766C59.0977 6.07482 58.4163 4.10221 56.7773 3.1558C55.8828 2.63936 54.8406 2.50207 53.8428 2.76961C53.0773 2.97475 52.4099 3.40066 51.9064 3.99129C50.8964 3.6348 49.8565 3.3583 48.8016 3.16266C48.4694 1.36564 46.8918 0 45 0C43.1088 0 41.5313 1.36512 41.1986 3.16143C40.1439 3.35707 39.1048 3.63586 38.0944 3.99217C37.591 3.40102 36.9232 2.97457 36.1571 2.76943C35.1594 2.50207 34.1172 2.63918 33.2227 3.15562C31.5842 4.10186 30.9027 6.07359 31.5139 7.79607C30.6997 8.49357 29.9399 9.25488 29.2424 10.0691C27.5196 9.45738 25.5473 10.1387 24.6009 11.7773C24.0845 12.6719 23.9472 13.7141 24.2147 14.7118C24.4199 15.4774 24.8458 16.1448 25.4362 16.6481C25.0799 17.6583 24.8034 18.698 24.6076 19.7529C22.811 20.0855 21.4453 21.6631 21.4453 23.5547C21.4453 25.4464 22.811 27.0241 24.608 27.3563C24.8036 28.411 25.0813 29.4493 25.438 30.4599C24.8467 30.9633 24.4201 31.6313 24.2149 32.3974C23.9476 33.3953 24.0848 34.4373 24.6011 35.3319C25.3167 36.5711 26.6193 37.2646 27.957 37.2646C28.3885 37.2646 28.8234 37.1907 29.2437 37.0413C29.9408 37.8548 30.7005 38.6146 31.5146 39.3119C30.9027 41.0346 31.5842 43.007 33.223 43.9534C33.8189 44.2974 34.48 44.4732 35.1503 44.4732C35.4862 44.4732 35.8244 44.4289 36.1575 44.3396C36.9236 44.1345 37.5915 43.7078 38.0948 43.1165C39.1054 43.473 40.1439 43.7507 41.1986 43.9464C41.4666 45.396 42.5452 46.5639 43.9455 46.9615V48.6626C42.3243 49.1229 41.133 50.6157 41.133 52.3825V52.7548C39.5534 52.9304 38.3205 54.2725 38.3205 55.8981C38.3205 57.5237 39.5534 58.8658 41.133 59.0414V62.5781H37.5966C37.421 60.9986 36.0789 59.7656 34.4533 59.7656C32.8277 59.7656 31.4856 60.9986 31.31 62.5781H30.9375C28.8051 62.5781 27.0703 64.3129 27.0703 66.4453C27.0703 68.5777 28.8051 70.3125 30.9375 70.3125H31.3098C31.4854 71.8921 32.8275 73.125 34.4531 73.125C36.0787 73.125 37.4208 71.8921 37.5964 70.3125H41.1328V79.4739C39.5532 79.6495 38.3203 80.9916 38.3203 82.6172C38.3203 84.2428 39.5532 85.5849 41.1328 85.7605V86.1328C41.1328 88.2652 42.8676 90 45 90C47.1324 90 48.8672 88.2652 48.8672 86.1328V85.7605C50.4468 85.5849 51.6797 84.2428 51.6797 82.6172C51.6797 80.9916 50.4468 79.6495 48.8672 79.4739V70.3125H52.4036C52.5792 71.8921 53.9212 73.125 55.5469 73.125C57.1725 73.125 58.5146 71.8921 58.6902 70.3125H59.0625C61.1949 70.3125 62.9297 68.5777 62.9297 66.4453C62.9297 64.3129 61.1949 62.5781 59.0625 62.5781H58.6902C58.5146 60.9986 57.1725 59.7656 55.5469 59.7656C53.9212 59.7656 52.5792 60.9986 52.4036 62.5781H48.8672V59.0418C50.4468 58.8661 51.6797 57.5241 51.6797 55.8984C51.6797 54.2728 50.4468 52.9307 48.8672 52.7551V52.3828C48.8672 50.616 47.6759 49.1233 46.0547 48.6629V46.9619C47.455 46.5643 48.5336 45.3962 48.8016 43.9467C49.8565 43.7511 50.8948 43.4732 51.9052 43.1167C52.4087 43.708 53.0766 44.1348 53.8427 44.3399C54.176 44.4292 54.514 44.4735 54.8499 44.4735C55.52 44.4734 56.1813 44.2978 56.7772 43.9538C58.416 43.0073 59.0973 41.0351 58.4856 39.3122C59.2993 38.6153 60.059 37.8555 60.7563 37.0417C61.1766 37.1911 61.6115 37.2649 62.043 37.2649C63.3804 37.2649 64.6835 36.5713 65.3989 35.3322C65.9153 34.4377 66.0526 33.3955 65.7851 32.3977C65.5799 31.6317 65.1533 30.9637 64.562 30.4604C64.9185 29.4499 65.1962 28.4115 65.3919 27.3567C67.189 27.0241 68.5547 25.4464 68.5547 23.5547ZM31.2891 68.2031H30.9375C29.9682 68.2031 29.1797 67.4146 29.1797 66.4453C29.1797 65.4761 29.9682 64.6875 30.9375 64.6875H31.2891V68.2031ZM35.5078 69.9609C35.5078 70.5426 35.0348 71.0156 34.4531 71.0156C33.8715 71.0156 33.3984 70.5426 33.3984 69.9609V62.9297C33.3984 62.348 33.8715 61.875 34.4531 61.875C35.0348 61.875 35.5078 62.348 35.5078 62.9297V69.9609ZM58.7109 64.6875H59.0625C60.0318 64.6875 60.8203 65.4761 60.8203 66.4453C60.8203 67.4146 60.0318 68.2031 59.0625 68.2031H58.7109V64.6875ZM54.4922 62.9297C54.4922 62.348 54.9652 61.875 55.5469 61.875C56.1285 61.875 56.6016 62.348 56.6016 62.9297V69.9609C56.6016 70.5426 56.1285 71.0156 55.5469 71.0156C54.9652 71.0156 54.4922 70.5426 54.4922 69.9609V62.9297ZM60.3519 13.256C60.4733 12.8025 60.7644 12.4235 61.171 12.1887C61.447 12.0292 61.7488 11.9535 62.0467 11.9535C62.6548 11.9535 63.2468 12.2688 63.5722 12.832C64.0568 13.6714 63.7682 14.7486 62.9288 15.2332C62.0903 15.7178 61.0124 15.4294 60.5276 14.5898C60.2928 14.1833 60.2304 13.7095 60.3519 13.256ZM53.3215 5.62588C53.8059 4.78617 54.8831 4.49754 55.7227 4.98252C56.5618 5.46715 56.8506 6.54451 56.366 7.38369C56.1312 7.79027 55.7522 8.08137 55.2987 8.20283C54.8448 8.3243 54.3714 8.26172 53.9648 8.02705C53.1255 7.54242 52.8369 6.46523 53.3215 5.62588ZM45 2.10938C45.9693 2.10938 46.7578 2.89793 46.7578 3.86719C46.7578 4.83645 45.9693 5.625 45 5.625C44.0307 5.625 43.2422 4.83645 43.2422 3.86719C43.2422 2.89793 44.0307 2.10938 45 2.10938ZM34.2773 4.98252C34.5535 4.82309 34.8553 4.74732 35.1533 4.74732C35.7611 4.74732 36.3533 5.06268 36.6785 5.62588C37.1631 6.46523 36.8745 7.54242 36.0352 8.02705C35.6286 8.26172 35.155 8.3243 34.7013 8.20283C34.2478 8.08137 33.8688 7.79027 33.634 7.38369C33.1494 6.54434 33.4382 5.46715 34.2773 4.98252ZM26.4278 12.832C26.7532 12.2688 27.3452 11.9535 27.9533 11.9535C28.251 11.9535 28.553 12.0294 28.829 12.1887C29.2358 12.4235 29.5267 12.8025 29.6481 13.256C29.7696 13.7095 29.7072 14.1831 29.4724 14.5898C28.9879 15.429 27.9104 15.7182 27.0712 15.2332C26.2318 14.7486 25.9432 13.6714 26.4278 12.832ZM25.3125 25.3125C24.3432 25.3125 23.5547 24.5239 23.5547 23.5547C23.5547 22.5854 24.3432 21.7969 25.3125 21.7969C26.2818 21.7969 27.0703 22.5854 27.0703 23.5547C27.0703 24.5239 26.2818 25.3125 25.3125 25.3125ZM29.6481 33.8534C29.5267 34.3069 29.2356 34.6859 28.829 34.9207C27.9896 35.4055 26.9126 35.1165 26.4278 34.2773C25.9432 33.438 26.2318 32.3608 27.0712 31.8762C27.9098 31.3914 28.9876 31.68 29.4724 32.5195C29.7072 32.9263 29.7696 33.3998 29.6481 33.8534ZM36.6785 41.4835C36.1939 42.3228 35.1167 42.6117 34.2773 42.1269C33.4382 41.6422 33.1494 40.5649 33.634 39.7257C33.8688 39.3189 34.2478 39.028 34.7013 38.9065C34.8527 38.8661 35.0063 38.8459 35.1591 38.8459C35.4637 38.8459 35.7643 38.9259 36.0352 39.0823C36.8745 39.567 37.1631 40.6441 36.6785 41.4835ZM46.7578 86.1328C46.7578 87.1021 45.9693 87.8906 45 87.8906C44.0307 87.8906 43.2422 87.1021 43.2422 86.1328V85.7812H46.7578V86.1328ZM49.5703 82.6172C49.5703 83.1988 49.0973 83.6719 48.5156 83.6719H41.4844C40.9027 83.6719 40.4297 83.1988 40.4297 82.6172C40.4297 82.0355 40.9027 81.5625 41.4844 81.5625H48.5156C49.0973 81.5625 49.5703 82.0355 49.5703 82.6172ZM52.3828 64.6875V68.2031H46.7578V79.4531H43.2422V68.2031H37.6172V64.6875H43.2422V59.0625H46.7578V64.6875H52.3828ZM48.5156 54.8438C49.0973 54.8438 49.5703 55.3168 49.5703 55.8984C49.5703 56.4801 49.0973 56.9531 48.5156 56.9531H41.4844C40.9027 56.9531 40.4297 56.4801 40.4297 55.8984C40.4297 55.3168 40.9027 54.8438 41.4844 54.8438H48.5156ZM46.7578 52.3828V52.7344H43.2422V52.3828C43.2422 51.4136 44.0307 50.625 45 50.625C45.9693 50.625 46.7578 51.4136 46.7578 52.3828ZM45 45C44.0307 45 43.2422 44.2114 43.2422 43.2422C43.2422 42.2729 44.0307 41.4844 45 41.4844C45.9693 41.4844 46.7578 42.2729 46.7578 43.2422C46.7578 44.2114 45.9693 45 45 45ZM55.7227 42.1269C54.8833 42.6117 53.8061 42.3228 53.3215 41.4835C52.8369 40.6441 53.1255 39.567 53.9648 39.0823C54.2357 38.9259 54.5363 38.8459 54.8409 38.8459C54.9935 38.8459 55.1471 38.8659 55.2985 38.9065C55.752 39.028 56.131 39.3191 56.3658 39.7257C56.8506 40.565 56.5618 41.6422 55.7227 42.1269ZM58.7007 31.4648C58.1841 32.3594 58.047 33.4016 58.3144 34.3993C58.455 34.9239 58.7009 35.4015 59.0305 35.8131C58.4801 36.4426 57.8878 37.035 57.2586 37.5852C56.847 37.2556 56.3694 37.0095 55.8448 36.8691C54.8466 36.6017 53.8047 36.7392 52.9103 37.2554C51.4923 38.0742 50.7925 39.6615 51.0253 41.1906C50.2339 41.4608 49.4239 41.6767 48.6023 41.8377C48.0387 40.398 46.6371 39.375 45 39.375C43.3629 39.375 41.9611 40.398 41.3979 41.8379C40.5765 41.677 39.7665 41.4605 38.9751 41.1903C39.2077 39.6613 38.5079 38.074 37.0898 37.2554C36.1955 36.739 35.1534 36.6015 34.1554 36.8691C33.6306 37.0097 33.1532 37.2558 32.7415 37.5852C32.1121 37.0346 31.5199 36.4423 30.9695 35.8131C31.2991 35.4015 31.545 34.9239 31.6856 34.3993C31.9528 33.4014 31.8157 32.3594 31.2993 31.4648C30.4805 30.0466 28.8932 29.347 27.364 29.5798C27.0939 28.7882 26.8778 27.9782 26.717 27.1568C28.1566 26.5936 29.1797 25.1917 29.1797 23.5547C29.1797 21.9175 28.1563 20.5154 26.7161 19.9522C26.8771 19.1315 27.0939 18.322 27.3637 17.5315C27.5567 17.5609 27.7504 17.5772 27.9436 17.5772C29.2811 17.5772 30.5838 16.8838 31.2993 15.6445C31.8157 14.75 31.953 13.7078 31.6856 12.71C31.545 12.1853 31.2989 11.7077 30.9693 11.2959C31.5195 10.6668 32.1124 10.0747 32.7417 9.52435C33.1534 9.85377 33.6308 10.0999 34.1554 10.2403C34.4886 10.3296 34.8267 10.3737 35.1626 10.3737C35.8328 10.3737 36.4941 10.1979 37.09 9.85394C38.5082 9.03498 39.208 7.4475 38.9751 5.9182C39.7661 5.6482 40.5766 5.43182 41.3979 5.2708C41.9607 6.71098 43.3628 7.73438 45 7.73438C46.6374 7.73438 48.0393 6.71098 48.6025 5.2708C49.4239 5.43182 50.2341 5.64891 51.0251 5.91873C50.7923 7.44785 51.4921 9.03516 52.9102 9.85394C53.5061 10.1979 54.1673 10.3737 54.8376 10.3737C55.1733 10.3737 55.5115 10.3296 55.8447 10.2403C56.3697 10.0995 56.8477 9.85324 57.2597 9.5233C57.8892 10.0737 58.4812 10.6657 59.0316 11.295C58.7016 11.707 58.4552 12.185 58.3145 12.71C58.0472 13.7079 58.1845 14.75 58.7009 15.6445C59.4163 16.8838 60.7189 17.5772 62.0566 17.5772C62.2499 17.5772 62.4438 17.5609 62.6368 17.5315C62.9067 18.3222 63.1223 19.1317 63.2834 19.9526C61.8434 20.5158 60.8203 21.9176 60.8203 23.5547C60.8203 25.1919 61.8434 26.5936 63.2834 27.1568C63.1223 27.9784 62.906 28.7882 62.6358 29.5794C61.1067 29.3469 59.5195 30.0468 58.7007 31.4648ZM63.5722 34.2773C63.0875 35.1165 62.0105 35.4052 61.171 34.9207C60.7644 34.6859 60.4733 34.3069 60.3519 33.8534C60.2304 33.3998 60.2928 32.9263 60.5276 32.5195C60.8528 31.9563 61.4449 31.641 62.0529 31.641C62.3508 31.641 62.6528 31.7169 62.9288 31.8762C63.7683 32.3608 64.0568 33.438 63.5722 34.2773ZM62.9297 23.5547C62.9297 22.5854 63.7182 21.7969 64.6875 21.7969C65.6568 21.7969 66.4453 22.5854 66.4453 23.5547C66.4453 24.5239 65.6568 25.3125 64.6875 25.3125C63.7182 25.3125 62.9297 24.5239 62.9297 23.5547Z" fill="#1C2647"></path>
                    </g>
                    <defs>
                      <clipPath id="clip3">
                        <rect width="90" height="90" fill="white"></rect>
                      </clipPath>
                    </defs>
                  </svg>