<svg width="90" height="90" viewBox="0 0 90 90" fill="none" xmlns="http://www.w3.org/2000/svg">
                    <g clip-path="url(#clip2)">
                      <path d="M33.3132 31.2891L27.0703 37.5319V41.8359H62.9297V37.5319L56.6868 31.2891H33.3132ZM60.8203 39.7266H29.1797V38.4056L34.1868 33.3984H55.813L60.8203 38.4056V39.7266Z" fill="#1C2647"></path>
                      <path d="M34.8047 55.1953H27.0703V62.9297H34.8047V55.1953ZM32.6953 60.8203H29.1797V57.3047H32.6953V60.8203Z" fill="#1C2647"></path>
                      <path d="M48.8672 55.1953H41.1328V62.9297H48.8672V55.1953ZM46.7578 60.8203H43.2422V57.3047H46.7578V60.8203Z" fill="#1C2647"></path>
                      <path d="M62.9297 55.1953H55.1953V62.9297H62.9297V55.1953ZM60.8203 60.8203H57.3047V57.3047H60.8203V60.8203Z" fill="#1C2647"></path>
                      <path d="M79.8047 83.3203V72.0703H71.3672V66.4453H68.5547V51.6797H71.3672V43.9453H68.5547V36.1257L59.4993 27.0703H48.1641V17.2266H54.4922V10.8984H48.1641V4.57031H41.8359V10.8984H35.5078V17.2266H41.8359V27.0703H30.5007L21.4453 36.1257V43.9453H18.6328V51.6797H21.4453V66.4453H18.6328V72.0703H10.1953V83.3203H0V85.4297H90V83.3203H79.8047ZM37.6172 15.1172V13.0078H43.9453V6.67969H46.0547V13.0078H52.3828V15.1172H46.0547V27.0703H43.9453V15.1172H37.6172ZM23.5547 36.9993L31.3743 29.1797H58.6255L66.4453 36.9993V43.9453H23.5547V36.9993ZM20.7422 49.5703V46.0547H69.2578V49.5703H20.7422ZM66.4453 51.6797V66.4453H23.5547V51.6797H66.4453ZM20.7422 68.5547H69.2578V72.0703H20.7422V68.5547ZM77.6953 83.3203H12.3047V74.1797H77.6953V83.3203Z" fill="#1C2647"></path>
                    </g>
                    <defs>
                      <clipPath id="clip2">
                        <rect width="90" height="90" fill="white"></rect>
                      </clipPath>
                    </defs>
                  </svg>