<svg width="70" height="70" viewBox="0 0 70 70" fill="none" xmlns="http://www.w3.org/2000/svg">
                    <path d="M31.4453 44.504L28.1641 41.2228V33.0859H23.7891V27.6172H19.4141V25.4297H13.3984V28.7109H9.02343V41.2229L5.40244 44.8438L13.879 53.3203H16.6797V56.0547H14.4922V70H33.6328V56.0547H31.4453V44.504ZM23.7891 34.7266H26.5234V40.7422H23.7891V34.7266ZM19.4141 29.2578H22.1484V40.7422H19.4141V29.2578ZM15.0391 27.0703H17.7734V40.7422H15.0391V27.0703ZM14.5585 51.6797L7.72255 44.8438L9.84374 42.7226L13.6388 46.5175L14.7987 45.3575L10.6641 41.2228V30.3516H13.3984V42.3828H27.004L29.8047 45.1835V56.0547H18.3203V53.3203H21.875V51.6797H14.5585ZM31.9922 68.3594H16.1328V62.0703H31.9922V68.3594ZM31.9922 57.6953V60.4297H16.1328V57.6953H31.9922Z" fill="#1C2647"></path>
                    <path d="M56.121 53.3203L64.5976 44.8438L60.9766 41.2229V28.7109H56.6016V25.4297H50.5859V27.6172H46.2109V33.0859H41.8359V41.2228L38.5547 44.504V56.0547H36.3672V70H55.5078V56.0547H53.3203V53.3203H56.121ZM52.2266 27.0703H54.9609V40.7422H52.2266V27.0703ZM47.8516 29.2578H50.5859V40.7422H47.8516V29.2578ZM43.4766 34.7266H46.2109V40.7422H43.4766V34.7266ZM53.8672 68.3594H38.0078V62.0703H53.8672V68.3594ZM53.8672 57.6953V60.4297H38.0078V57.6953H53.8672ZM51.6797 53.3203V56.0547H40.1953V45.1835L42.996 42.3828H56.6016V30.3516H59.3359V41.2228L55.2013 45.3575L56.3612 46.5175L60.1562 42.7226L62.2774 44.8438L55.4415 51.6797H48.125V53.3203H51.6797Z" fill="#1C2647"></path>
                    <path d="M38.0078 29.2578V28.9682C39.2364 28.8317 40.1953 27.7878 40.1953 26.5234C40.1953 25.2591 39.2364 24.2152 38.0078 24.0786V16.9531H40.7583C40.8949 18.1817 41.9387 19.1406 43.2031 19.1406C44.4675 19.1406 45.5113 18.1817 45.6479 16.9531H45.9375C47.596 16.9531 48.9453 15.6038 48.9453 13.9453C48.9453 12.2868 47.596 10.9375 45.9375 10.9375H45.6479C45.5113 9.70895 44.4675 8.75 43.2031 8.75C41.9387 8.75 40.8949 9.70895 40.7583 10.9375H38.0078V8.18699C39.2364 8.05041 40.1953 7.00656 40.1953 5.74219C40.1953 4.47781 39.2364 3.43396 38.0078 3.29738V3.00781C38.0078 1.34928 36.6585 0 35 0C33.3415 0 31.9922 1.34928 31.9922 3.00781V3.29738C30.7636 3.43396 29.8047 4.47781 29.8047 5.74219C29.8047 7.00656 30.7636 8.05041 31.9922 8.18699V10.9375H29.2417C29.1051 9.70895 28.0613 8.75 26.7969 8.75C25.5325 8.75 24.4887 9.70895 24.3521 10.9375H24.0625C22.404 10.9375 21.0547 12.2868 21.0547 13.9453C21.0547 15.6038 22.404 16.9531 24.0625 16.9531H24.3521C24.4887 18.1817 25.5325 19.1406 26.7969 19.1406C28.0613 19.1406 29.1051 18.1817 29.2417 16.9531H31.9922V24.0786C30.7636 24.2152 29.8047 25.2591 29.8047 26.5234C29.8047 27.7878 30.7636 28.8317 31.9922 28.9682V29.2578C31.9922 30.9163 33.3415 32.2656 35 32.2656C36.6585 32.2656 38.0078 30.9163 38.0078 29.2578ZM45.6641 12.5781H45.9375C46.6914 12.5781 47.3047 13.1914 47.3047 13.9453C47.3047 14.6992 46.6914 15.3125 45.9375 15.3125H45.6641V12.5781ZM42.3828 11.2109C42.3828 10.7585 42.7507 10.3906 43.2031 10.3906C43.6555 10.3906 44.0234 10.7585 44.0234 11.2109V16.6797C44.0234 17.1321 43.6555 17.5 43.2031 17.5C42.7507 17.5 42.3828 17.1321 42.3828 16.6797V11.2109ZM24.3359 15.3125H24.0625C23.3086 15.3125 22.6953 14.6992 22.6953 13.9453C22.6953 13.1914 23.3086 12.5781 24.0625 12.5781H24.3359V15.3125ZM27.6172 16.6797C27.6172 17.1321 27.2493 17.5 26.7969 17.5C26.3445 17.5 25.9766 17.1321 25.9766 16.6797V11.2109C25.9766 10.7585 26.3445 10.3906 26.7969 10.3906C27.2493 10.3906 27.6172 10.7585 27.6172 11.2109V16.6797ZM33.6328 3.00781C33.6328 2.25395 34.2461 1.64062 35 1.64062C35.7539 1.64062 36.3672 2.25395 36.3672 3.00781V3.28125H33.6328V3.00781ZM31.4453 5.74219C31.4453 5.28979 31.8132 4.92188 32.2656 4.92188H37.7344C38.1868 4.92188 38.5547 5.28979 38.5547 5.74219C38.5547 6.19459 38.1868 6.5625 37.7344 6.5625H32.2656C31.8132 6.5625 31.4453 6.19459 31.4453 5.74219ZM29.2578 15.3125V12.5781H33.6328V8.20312H36.3672V12.5781H40.7422V15.3125H36.3672V24.0625H33.6328V15.3125H29.2578ZM32.2656 27.3438C31.8132 27.3438 31.4453 26.9758 31.4453 26.5234C31.4453 26.071 31.8132 25.7031 32.2656 25.7031H37.7344C38.1868 25.7031 38.5547 26.071 38.5547 26.5234C38.5547 26.9758 38.1868 27.3438 37.7344 27.3438H32.2656ZM36.3672 29.2578C36.3672 30.0117 35.7539 30.625 35 30.625C34.2461 30.625 33.6328 30.0117 33.6328 29.2578V28.9844H36.3672V29.2578Z" fill="#1C2647"></path>
                  </svg>